<svg width="24.000000" height="24.000000" viewBox="0 0 24 24" fill="none" xmlns="http://www.w3.org/2000/svg" xmlns:xlink="http://www.w3.org/1999/xlink">
	<desc>
			Created with Pixso.
	</desc>
	<defs>
		<clipPath id="clip0_12">
			<rect id="Frame" width="24.000000" height="24.000000" fill="white" fill-opacity="0"/>
		</clipPath>
	</defs>
	<rect id="Frame" width="24.000000" height="24.000000" fill="#FFFFFF" fill-opacity="0"/>
	<g clip-path="url(#clip0_12)">
		<path id="Vector" d="M6.75 3L6.75 5.25M17.25 3L17.25 5.25M3 7.5C3 6.90326 3.23706 6.33096 3.65906 5.909C4.08093 5.48706 4.65332 5.25 5.25 5.25L18.75 5.25C19.3467 5.25 19.9191 5.48706 20.3409 5.909C20.7629 6.33096 21 6.90326 21 7.5L21 18.75C21 19.3467 20.7629 19.919 20.3409 20.341C19.9191 20.7629 19.3467 21 18.75 21L5.25 21C4.65332 21 4.08093 20.7629 3.65906 20.341C3.23706 19.919 3 19.3467 3 18.75L3 7.5ZM3 18.75L3 11.25C3 10.6533 3.23706 10.081 3.65906 9.659C4.08093 9.23706 4.65332 9 5.25 9L18.75 9C19.3467 9 19.9191 9.23706 20.3409 9.659C20.7629 10.081 21 10.6533 21 11.25L21 18.75M12.0081 12.75L12.0081 12.758L12 12.758L12 12.75L12.0081 12.75ZM12.0081 15L12.0081 15.008L12 15.008L12 15L12.0081 15ZM12.0081 17.25L12.0081 17.258L12 17.258L12 17.25L12.0081 17.25ZM9.75806 15L9.75806 15.008L9.75 15.008L9.75 15L9.75806 15ZM9.75806 17.25L9.75806 17.258L9.75 17.258L9.75 17.25L9.75806 17.25ZM7.50806 15L7.50806 15.008L7.5 15.008L7.5 15L7.50806 15ZM7.50806 17.25L7.50806 17.258L7.5 17.258L7.5 17.25L7.50806 17.25ZM14.2581 12.75L14.2581 12.758L14.25 12.758L14.25 12.75L14.2581 12.75ZM14.2581 15L14.2581 15.008L14.25 15.008L14.25 15L14.2581 15ZM14.2581 17.25L14.2581 17.258L14.25 17.258L14.25 17.25L14.2581 17.25ZM16.5081 12.75L16.5081 12.758L16.5 12.758L16.5 12.75L16.5081 12.75ZM16.5081 15L16.5081 15.008L16.5 15.008L16.5 15L16.5081 15Z" stroke="#585858" stroke-opacity="1.000000" stroke-width="1.500000" stroke-linejoin="round"/>
	</g>
</svg>
